<svg xmlns="http://www.w3.org/2000/svg" width="174.751" height="135.553" viewBox="0 0 174.751 135.553">
  <g id="Group_26" data-name="Group 26" transform="translate(-38.053 -51.452)">
    <g id="Group_25" data-name="Group 25" transform="translate(28 31)">
      <g id="Group_17" data-name="Group 17" transform="translate(-29.29 20.452)">
        <g id="Group_15" data-name="Group 15" transform="translate(88.096)">
          <path id="Path_2" data-name="Path 2" d="M171.482,263.09V231.106h64.8V263.09H238.8V228.349H168.967V263.09Z" transform="translate(-164.941 -211.975)" fill="#ff3237"/>
          <path id="Path_3" data-name="Path 3" d="M236.286,245.914V277.9h-64.8V245.914h-2.515v34.742H238.8V245.914Z" transform="translate(-164.941 -192.042)" fill="#323594"/>
          <path id="Path_4" data-name="Path 4" d="M173.577,242.5l32.482,30.783-38.977-52.606Z" transform="translate(-167.081 -220.679)" fill="#dbdad8"/>
          <path id="Path_5" data-name="Path 5" d="M185.339,273.285,217.82,242.5l6.5-21.823Z" transform="translate(-146.362 -220.679)" fill="#dbdad8"/>
          <path id="Path_6" data-name="Path 6" d="M206.058,252.38l-38.977-31.7,38.977,52.606,38.976-52.606Z" transform="translate(-167.081 -220.679)" fill="#0e528f"/>
          <path id="Path_7" data-name="Path 7" d="M217.82,276.1l-32.48-30.783,38.976,52.606Z" transform="translate(-146.362 -192.715)" fill="#dbdad8"/>
          <path id="Path_8" data-name="Path 8" d="M206.058,245.321,173.577,276.1l-6.5,21.823Z" transform="translate(-167.081 -192.715)" fill="#dbdad8"/>
          <path id="Path_9" data-name="Path 9" d="M206.058,266.227l38.976,31.7-38.976-52.606-38.977,52.606Z" transform="translate(-167.081 -192.715)" fill="#ff2931"/>
        </g>
      </g>
      <path id="Path_1174" data-name="Path 1174" d="M10.936-15.705H14.3L8.959,0H5.328L0-15.705H3.362L6.316-6.359q.247.827.51,1.928T7.154-2.9A27.515,27.515,0,0,1,7.96-6.359ZM15.35,0V-15.705h3.33V0Zm13.03-13.159a3.393,3.393,0,0,0-2.911,1.413A6.572,6.572,0,0,0,24.438-7.81q0,5.253,3.942,5.253a12.462,12.462,0,0,0,4.007-.827V-.591a11.127,11.127,0,0,1-4.318.806,6.586,6.586,0,0,1-5.242-2.079,8.8,8.8,0,0,1-1.815-5.967,9.744,9.744,0,0,1,.892-4.292,6.444,6.444,0,0,1,2.562-2.825,7.579,7.579,0,0,1,3.916-.983,10.568,10.568,0,0,1,4.6,1.106L31.9-12.117a17.782,17.782,0,0,0-1.772-.73A5.288,5.288,0,0,0,28.381-13.159ZM40.863,0h-3.33V-12.934H33.268v-2.771H45.127v2.771H40.863ZM60.875-7.874A8.522,8.522,0,0,1,58.942-1.88,7.168,7.168,0,0,1,53.4.215,7.168,7.168,0,0,1,47.856-1.88,8.555,8.555,0,0,1,45.922-7.9a8.439,8.439,0,0,1,1.939-5.989,7.251,7.251,0,0,1,5.559-2.068,7.15,7.15,0,0,1,5.538,2.084A8.544,8.544,0,0,1,60.875-7.874Zm-11.462,0a6.56,6.56,0,0,0,1,3.964A3.5,3.5,0,0,0,53.4-2.578q3.985,0,3.985-5.3T53.42-13.181a3.519,3.519,0,0,0-3,1.337A6.533,6.533,0,0,0,49.413-7.874Zm17.123-.859H67.61a4.11,4.11,0,0,0,2.331-.526,1.879,1.879,0,0,0,.752-1.654,1.719,1.719,0,0,0-.768-1.59,4.661,4.661,0,0,0-2.379-.473h-1.01Zm0,2.707V0h-3.33V-15.705h4.576A7.832,7.832,0,0,1,72.52-14.54,4.16,4.16,0,0,1,74.056-11a4.167,4.167,0,0,1-.763,2.465,5.046,5.046,0,0,1-2.159,1.692Q74.679-1.547,75.753,0h-3.7L68.309-6.026ZM86.42,0,85.281-3.738H79.556L78.417,0H74.829l5.543-15.77h4.071L90.008,0ZM84.486-6.531q-1.579-5.081-1.778-5.747t-.285-1.053q-.354,1.375-2.03,6.8Z" transform="translate(10.053 155.79)" fill="#0e5793"/>
      <path id="Path_1175" data-name="Path 1175" d="M8.4-7.917h5.79V-.752A12.994,12.994,0,0,1,9.066.215a7.46,7.46,0,0,1-5.7-2.1A8.329,8.329,0,0,1,1.386-7.831a8.929,8.929,0,0,1,.983-4.249,6.885,6.885,0,0,1,2.814-2.863,8.567,8.567,0,0,1,4.206-1.01A10.841,10.841,0,0,1,14-15.007l-.44.988a9.962,9.962,0,0,0-4.232-.945A6.47,6.47,0,0,0,4.4-13.046,7.2,7.2,0,0,0,2.578-7.874,7.392,7.392,0,0,0,4.308-2.541,6.752,6.752,0,0,0,9.389-.752a9.842,9.842,0,0,0,3.685-.612V-6.886H8.4ZM19.229-6.843V0h-1.1V-15.705h3.738a7.043,7.043,0,0,1,4.318,1.08,3.851,3.851,0,0,1,1.4,3.25,4.246,4.246,0,0,1-.833,2.664,4.628,4.628,0,0,1-2.53,1.558L28.488,0H27.178l-4.05-6.843Zm0-.945h3a4.783,4.783,0,0,0,3.083-.886,3.166,3.166,0,0,0,1.1-2.616A3.069,3.069,0,0,0,25.33-13.9a5.864,5.864,0,0,0-3.5-.816h-2.6Zm25.18-.086A8.772,8.772,0,0,1,42.539-1.96,6.438,6.438,0,0,1,37.383.215,6.426,6.426,0,0,1,32.237-1.96,8.806,8.806,0,0,1,30.368-7.9a8.655,8.655,0,0,1,1.885-5.9A6.492,6.492,0,0,1,37.4-15.952a6.421,6.421,0,0,1,5.146,2.165A8.78,8.78,0,0,1,44.408-7.874Zm-12.848,0a8.045,8.045,0,0,0,1.5,5.215A5.254,5.254,0,0,0,37.383-.816a5.284,5.284,0,0,0,4.334-1.826,8.053,8.053,0,0,0,1.5-5.231,7.966,7.966,0,0,0-1.5-5.2,5.281,5.281,0,0,0-4.313-1.81,5.31,5.31,0,0,0-4.324,1.826A7.9,7.9,0,0,0,31.561-7.874Zm28-7.831V-5.543A5.631,5.631,0,0,1,58-1.311,6.007,6.007,0,0,1,53.625.215a5.757,5.757,0,0,1-4.259-1.531,5.772,5.772,0,0,1-1.531-4.27V-15.705h1.106V-5.543A4.782,4.782,0,0,0,50.2-2.014,4.8,4.8,0,0,0,53.754-.752a4.694,4.694,0,0,0,3.48-1.241A4.665,4.665,0,0,0,58.47-5.436v-10.27Zm13.729,4.512A4.175,4.175,0,0,1,71.747-7.7a6.954,6.954,0,0,1-4.383,1.214H64.937V0h-1.1V-15.705h3.846Q73.294-15.705,73.294-11.193Zm-8.357,3.76H67.1a6.543,6.543,0,0,0,3.835-.875,3.3,3.3,0,0,0,1.182-2.841A3.207,3.207,0,0,0,71-13.841a5.585,5.585,0,0,0-3.459-.875h-2.6Z" transform="translate(111.51 154.517)" fill="#0e5793"/>
    </g>
  </g>
</svg>
